<svg width="25" height="24" viewBox="0 0 25 24" fill="none" xmlns="http://www.w3.org/2000/svg">
<path d="M10.99 2.23006L6 4.10005C4.85 4.53005 3.91 5.89004 3.91 7.12004V14.55C3.91 15.73 4.69001 17.28 5.64001 17.99L9.94 21.2001C11.35 22.2601 13.67 22.2601 15.08 21.2001L19.38 17.99C20.33 17.28 21.11 15.73 21.11 14.55V7.12004C21.11 5.89004 20.17 4.53005 19.02 4.10005L14.03 2.23006C13.18 1.92006 11.82 1.92006 10.99 2.23006Z" stroke="#BDBDBD" stroke-width="1.5" stroke-linecap="round" stroke-linejoin="round"/>
<path d="M12.5 10.92C12.46 10.92 12.41 10.92 12.37 10.92C11.43 10.89 10.68 10.11 10.68 9.16003C10.68 8.19003 11.47 7.40002 12.44 7.40002C13.41 7.40002 14.2 8.19003 14.2 9.16003C14.19 10.12 13.44 10.89 12.5 10.92Z" stroke="#BDBDBD" stroke-width="1.5" stroke-linecap="round" stroke-linejoin="round"/>
<path d="M10.51 13.7201C9.55001 14.3601 9.55001 15.4101 10.51 16.0501C11.6 16.7801 13.39 16.7801 14.48 16.0501C15.44 15.4101 15.44 14.3601 14.48 13.7201C13.4 12.9901 11.61 12.9901 10.51 13.7201Z" stroke="#BDBDBD" stroke-width="1.5" stroke-linecap="round" stroke-linejoin="round"/>
</svg>
