<svg width="25" height="24" viewBox="0 0 25 24" fill="none" xmlns="http://www.w3.org/2000/svg">
<path d="M11.25 2.44995C11.94 1.85995 13.07 1.85995 13.77 2.44995L15.35 3.81005C15.65 4.07005 16.21 4.28002 16.61 4.28002H18.31C19.37 4.28002 20.24 5.14996 20.24 6.20996V7.91003C20.24 8.30003 20.45 8.87004 20.71 9.17004L22.07 10.75C22.66 11.44 22.66 12.57 22.07 13.27L20.71 14.85C20.45 15.15 20.24 15.71 20.24 16.11V17.8101C20.24 18.8701 19.37 19.74 18.31 19.74H16.61C16.22 19.74 15.65 19.95 15.35 20.21L13.77 21.5699C13.08 22.1599 11.95 22.1599 11.25 21.5699L9.67002 20.21C9.37002 19.95 8.81001 19.74 8.41001 19.74H6.68C5.62 19.74 4.75 18.8701 4.75 17.8101V16.1C4.75 15.71 4.54001 15.15 4.29001 14.85L2.94 13.26C2.36 12.57 2.36 11.45 2.94 10.76L4.29001 9.17004C4.54001 8.87004 4.75 8.31004 4.75 7.92004V6.20996C4.75 5.14996 5.62 4.28002 6.68 4.28002H8.41001C8.80001 4.28002 9.37002 4.07005 9.67002 3.81005L11.25 2.44995Z" stroke="#BDBDBD" stroke-width="1.5" stroke-linecap="round" stroke-linejoin="round"/>
<path d="M10.39 14.82L11.84 15.94C12.03 16.13 12.45 16.22 12.73 16.22H14.5C15.06 16.22 15.67 15.8 15.81 15.24L16.93 11.82C17.16 11.17 16.74 10.6 16.04 10.6H14.17C13.89 10.6 13.66 10.3701 13.7 10.0401L13.93 8.54008C14.02 8.12008 13.74 7.65005 13.32 7.51005C12.95 7.37005 12.48 7.56 12.29 7.84L10.37 10.69" stroke="#BDBDBD" stroke-width="1.5" stroke-miterlimit="10"/>
<path d="M8 14.8199V10.24C8 9.57999 8.28 9.34998 8.94 9.34998H9.41C10.06 9.34998 10.35 9.57999 10.35 10.24V14.8199C10.35 15.4699 10.07 15.71 9.41 15.71H8.94C8.28 15.71 8 15.4799 8 14.8199Z" stroke="#BDBDBD" stroke-width="1.5" stroke-linecap="round" stroke-linejoin="round"/>
</svg>
